<?xml version="1.0" encoding="UTF-8"?>
<svg xmlns="http://www.w3.org/2000/svg" height="296" width="296" class="pyqrcode"><path transform="scale(8)" stroke="#000" class="pyqrline" d="M4 4.5h7m1 0h1m1 0h1m5 0h3m1 0h1m1 0h7m-29 1h1m5 0h1m1 0h1m2 0h1m2 0h1m2 0h1m1 0h1m2 0h1m5 0h1m-29 1h1m1 0h3m1 0h1m1 0h4m1 0h4m2 0h2m1 0h1m1 0h3m1 0h1m-29 1h1m1 0h3m1 0h1m4 0h1m2 0h2m1 0h1m1 0h1m2 0h1m1 0h3m1 0h1m-29 1h1m1 0h3m1 0h1m2 0h1m1 0h1m1 0h1m1 0h1m2 0h3m1 0h1m1 0h3m1 0h1m-29 1h1m5 0h1m1 0h1m1 0h1m3 0h3m1 0h1m1 0h1m1 0h1m5 0h1m-29 1h7m1 0h1m1 0h1m1 0h1m1 0h1m1 0h1m1 0h1m1 0h1m1 0h7m-21 1h1m1 0h2m7 0h2m-19 1h3m1 0h1m1 0h1m2 0h3m4 0h6m2 0h3m-22 1h2m7 0h2m6 0h1m3 0h1m-29 1h4m1 0h2m1 0h4m3 0h1m2 0h1m1 0h2m1 0h4m-26 1h1m1 0h1m3 0h1m1 0h3m1 0h1m1 0h4m5 0h2m2 0h1m-29 1h1m1 0h2m2 0h1m1 0h1m4 0h1m12 0h1m-24 1h3m1 0h1m1 0h3m2 0h1m1 0h2m1 0h7m1 0h2m-29 1h10m1 0h3m1 0h1m1 0h2m3 0h1m2 0h2m-27 1h2m1 0h1m1 0h1m4 0h3m1 0h1m2 0h3m1 0h5m1 0h2m-28 1h1m4 0h4m1 0h1m1 0h2m1 0h3m3 0h1m1 0h3m1 0h1m-29 1h2m6 0h1m1 0h2m2 0h1m1 0h1m1 0h1m1 0h2m1 0h1m1 0h2m1 0h1m-29 1h1m2 0h1m1 0h6m3 0h2m1 0h3m1 0h1m3 0h2m-27 1h1m1 0h1m1 0h2m1 0h2m3 0h1m1 0h1m1 0h5m1 0h2m1 0h1m1 0h1m-28 1h1m3 0h1m1 0h8m2 0h9m1 0h2m-20 1h2m2 0h2m3 0h1m2 0h1m3 0h2m1 0h2m-29 1h7m5 0h1m1 0h4m1 0h2m1 0h1m1 0h4m-28 1h1m5 0h1m3 0h1m2 0h2m1 0h1m1 0h3m3 0h1m3 0h1m-29 1h1m1 0h3m1 0h1m1 0h1m1 0h1m1 0h1m1 0h2m2 0h1m1 0h5m1 0h3m-29 1h1m1 0h3m1 0h1m1 0h1m1 0h1m1 0h1m3 0h1m2 0h1m5 0h2m-27 1h1m1 0h3m1 0h1m1 0h1m1 0h2m1 0h2m1 0h1m2 0h1m1 0h5m1 0h1m-28 1h1m5 0h1m4 0h2m1 0h1m2 0h1m1 0h1m1 0h1m5 0h1m-28 1h7m2 0h1m1 0h1m1 0h1m9 0h1"/></svg>
